<svg xmlns="http://www.w3.org/2000/svg" xmlns:xlink="http://www.w3.org/1999/xlink" viewBox="0 0 49.55 65.69"><defs><style>.cls-1{isolation:isolate;}.cls-2{mix-blend-mode:multiply;fill:url(#radial-gradient);}.cls-3{fill:#2f2f2f;}.cls-4{fill:#f4f4f4;}.cls-5{fill:#d2d2d2;}</style><radialGradient id="radial-gradient" cx="24.78" cy="1296.31" r="24.78" gradientTransform="translate(0 -227.86) scale(1 0.22)" gradientUnits="userSpaceOnUse"><stop offset="0" stop-color="#cacaca"/><stop offset="1" stop-color="#fff"/></radialGradient></defs><g class="cls-1"><g id="Capa_2" data-name="Capa 2"><g id="Layer_1" data-name="Layer 1"><path class="cls-2" d="M49.55,60.18c0,3-11.09,5.51-24.77,5.51S0,63.22,0,60.18s11.09-5.5,24.78-5.5S49.55,57.14,49.55,60.18Z"/><rect class="cls-3" x="4.65" width="41.72" height="58.18"/><path class="cls-4" d="M43,15V54.74H8V4.25l25-.06A2.28,2.28,0,0,1,34.61,5a2.51,2.51,0,0,1,.64,1.68V10a2.4,2.4,0,0,0,2.3,2.47h3.19a2.26,2.26,0,0,1,1.63.72A2.53,2.53,0,0,1,43,15Z"/><path class="cls-5" d="M34.68,4.91l7.75,8.25-.06.06a2.26,2.26,0,0,0-1.63-.72H37.55A2.4,2.4,0,0,1,35.25,10V6.65A2.51,2.51,0,0,0,34.61,5Z"/><path class="cls-3" d="M31.69,0H13.34V3c.56.11,1.13.21,1.7.3,0,1,0,2,0,3a25.63,25.63,0,0,0,15,0c0-1,0-2,0-3q.86-.13,1.71-.3Z"/><rect class="cls-5" x="16.25" y="3.72" width="12.52" height="2.06"/><path class="cls-5" d="M15.47,29.22a.71.71,0,0,1-.46-.17l-2.94-2.54A.7.7,0,0,1,13,25.45l2.32,2,2.13-3.41a.7.7,0,0,1,1-.22.69.69,0,0,1,.22,1l-2.57,4.1a.65.65,0,0,1-.48.32Z"/><path class="cls-5" d="M15.47,38a.71.71,0,0,1-.46-.17l-2.94-2.54A.7.7,0,0,1,13,34.23l2.32,2,2.13-3.41a.7.7,0,0,1,1-.22.69.69,0,0,1,.22,1l-2.57,4.1a.65.65,0,0,1-.48.32Z"/><path class="cls-5" d="M15.47,46.78a.71.71,0,0,1-.46-.17l-2.94-2.53A.71.71,0,0,1,13,43l2.32,2,2.13-3.41a.7.7,0,0,1,1-.22.69.69,0,0,1,.22,1l-2.57,4.1a.68.68,0,0,1-.48.32Z"/><path class="cls-3" d="M39,18.39H23A.7.7,0,0,1,23,17H39a.7.7,0,1,1,0,1.4Z"/><path class="cls-3" d="M39,27.17H23a.7.7,0,0,1,0-1.4H39a.7.7,0,1,1,0,1.4Z"/><path class="cls-3" d="M39,36H23a.7.7,0,0,1,0-1.4H39A.7.7,0,0,1,39,36Z"/><path class="cls-3" d="M39,44.73H23a.7.7,0,0,1,0-1.4H39a.7.7,0,0,1,0,1.4Z"/></g></g></g></svg>