<svg xmlns="http://www.w3.org/2000/svg" xmlns:xlink="http://www.w3.org/1999/xlink" viewBox="0 0 52.43 62.27"><defs><style>.cls-1{isolation:isolate;}.cls-2{mix-blend-mode:multiply;fill:url(#radial-gradient);}.cls-3{fill:#2f2f2f;}.cls-4{fill:#fff;}.cls-5{fill:#d2d2d2;}</style><radialGradient id="radial-gradient" cx="36.75" cy="907.64" r="22.5" gradientTransform="translate(-16.6 -144.4) scale(1.17 0.22)" gradientUnits="userSpaceOnUse"><stop offset="0" stop-color="#cacaca"/><stop offset="1" stop-color="#fff"/></radialGradient></defs><g class="cls-1"><g id="Capa_2" data-name="Capa 2"><g id="Layer_1" data-name="Layer 1"><ellipse class="cls-2" cx="26.22" cy="57.27" rx="26.22" ry="5"/><path class="cls-3" d="M45.82,51.44c0,1.64-1.63,3-3.64,3H7.86c-2,0-3.64-1.33-3.64-3V3c0-1.64,1.63-3,3.64-3H42.18c2,0,3.64,1.33,3.64,3Z"/><path class="cls-4" d="M43,47.85c0,1.34-1.4,2.42-3.13,2.42H10.22c-1.73,0-3.13-1.08-3.13-2.42V8.31c0-1.34,1.4-2.43,3.13-2.43h29.6C41.55,5.88,43,7,43,8.31Z"/><path class="cls-5" d="M39.49,18a3.12,3.12,0,0,1-2.88,3.32H14.43A3.12,3.12,0,0,1,11.55,18V13.76a3.12,3.12,0,0,1,2.88-3.32H36.61a3.12,3.12,0,0,1,2.88,3.32Z"/><path class="cls-5" d="M39.49,34.77a3.13,3.13,0,0,1-2.88,3.32H14.43a3.13,3.13,0,0,1-2.88-3.32V30.52a3.13,3.13,0,0,1,2.88-3.32H36.61a3.13,3.13,0,0,1,2.88,3.32Z"/><path class="cls-5" d="M28.58,3.24H21.46a.7.7,0,1,1,0-1.4h7.12a.7.7,0,1,1,0,1.4Z"/><rect class="cls-5" x="34.06" y="48.65" width="18.15" height="11.47"/><path class="cls-3" d="M17.5,17.8a.71.71,0,0,1-.46-.17L14.1,15.09a.69.69,0,0,1-.08-1A.7.7,0,0,1,15,14l2.33,2,2.13-3.41a.69.69,0,0,1,1-.22.7.7,0,0,1,.23,1l-2.57,4.1a.69.69,0,0,1-.49.32Z"/><path class="cls-3" d="M17.5,35.39a.71.71,0,0,1-.46-.17L14.1,32.69A.7.7,0,1,1,15,31.63l2.33,2,2.13-3.41a.7.7,0,0,1,1-.22.71.71,0,0,1,.23,1l-2.57,4.09a.7.7,0,0,1-.49.33Z"/></g></g></g></svg>